HIERARCHY
ROOT joint_Root
{
	OFFSET 0.0 0.0 0.0
	CHANNELS 6 Xposition Yposition Zposition Zrotation Xrotation Yrotation 
	JOINT Hips
	{
		OFFSET 4.5925 91.4895 -427.239
		CHANNELS 6 Xposition Yposition Zposition Zrotation Xrotation Yrotation 
		JOINT Spine
		{
			OFFSET 15.7357 0.0 0.0
			CHANNELS 6 Xposition Yposition Zposition Zrotation Xrotation Yrotation 
			JOINT Chest
			{
				OFFSET 8.98455 -0.406207 0.0
				CHANNELS 6 Xposition Yposition Zposition Zrotation Xrotation Yrotation 
				JOINT Neck
				{
					OFFSET 16.3773 0.0 0.0
					CHANNELS 6 Xposition Yposition Zposition Zrotation Xrotation Yrotation 
					JOINT Head
					{
						OFFSET 6.45672 0.0 0.0
						CHANNELS 6 Xposition Yposition Zposition Zrotation Xrotation Yrotation 
						End Site
						{
							OFFSET 0.0 0.0 0.0
						}
					}
				}
				JOINT Shoulder_L
				{
					OFFSET 12.9942 -0.242716 4.98039
					CHANNELS 6 Xposition Yposition Zposition Zrotation Xrotation Yrotation 
					JOINT UpperArm_L
					{
						OFFSET 5.34809 0.0 0.0
						CHANNELS 6 Xposition Yposition Zposition Zrotation Xrotation Yrotation 
						JOINT LowerArm_L
						{
							OFFSET 24.3286 1.87007e-05 0.0
							CHANNELS 6 Xposition Yposition Zposition Zrotation Xrotation Yrotation 
							JOINT Hand_L
							{
								OFFSET 22.2916 0.0 0.0
								CHANNELS 6 Xposition Yposition Zposition Zrotation Xrotation Yrotation 
								End Site
								{
									OFFSET 0.0 0.0 0.0
								}
							}
						}
					}
				}
				JOINT Shoulder_R
				{
					OFFSET 12.9945 -0.242716 -4.98039
					CHANNELS 6 Xposition Yposition Zposition Zrotation Xrotation Yrotation 
					JOINT UpperArm_R
					{
						OFFSET -5.34813 0.0 0.0
						CHANNELS 6 Xposition Yposition Zposition Zrotation Xrotation Yrotation 
						JOINT LowerArm_R
						{
							OFFSET -24.3289 0.000322201 0.0
							CHANNELS 6 Xposition Yposition Zposition Zrotation Xrotation Yrotation 
							JOINT Hand_R
							{
								OFFSET -22.2915 -0.000108084 0.0
								CHANNELS 6 Xposition Yposition Zposition Zrotation Xrotation Yrotation 
								End Site
								{
									OFFSET 0.0 0.0 0.0
								}
							}
						}
					}
				}
			}
		}
		JOINT UpperLeg_L
		{
			OFFSET -2.19248 -6.46944 0.0
			CHANNELS 6 Xposition Yposition Zposition Zrotation Xrotation Yrotation 
			JOINT LowerLeg_L
			{
				OFFSET 39.0811 0.0 -1.23785e-05
				CHANNELS 6 Xposition Yposition Zposition Zrotation Xrotation Yrotation 
				JOINT Foot_L
				{
					OFFSET 40.9854 0.0 -1.26872e-05
					CHANNELS 6 Xposition Yposition Zposition Zrotation Xrotation Yrotation 
					JOINT Toes_L
					{
						OFFSET 11.7543 0.0 0.0
						CHANNELS 6 Xposition Yposition Zposition Zrotation Xrotation Yrotation 
						End Site
						{
							OFFSET 0.0 0.0 0.0
						}
					}
				}
			}
		}
		JOINT UpperLeg_R
		{
			OFFSET -2.19251 6.46944 0.0
			CHANNELS 6 Xposition Yposition Zposition Zrotation Xrotation Yrotation 
			JOINT LowerLeg_R
			{
				OFFSET -39.0811 -0.00228153 -0.0401928
				CHANNELS 6 Xposition Yposition Zposition Zrotation Xrotation Yrotation 
				JOINT Foot_R
				{
					OFFSET -40.9854 0.0 0.0
					CHANNELS 6 Xposition Yposition Zposition Zrotation Xrotation Yrotation 
					JOINT Toes_R
					{
						OFFSET -11.7543 0.0 0.0
						CHANNELS 6 Xposition Yposition Zposition Zrotation Xrotation Yrotation 
						End Site
						{
							OFFSET 0.0 0.0 0.0
						}
					}
				}
			}
		}
	}
}
MOTION
Frames:	7
Frame Time:	0.0333333
0.000000 0.000000 0.000000 0.000000 0.000000 -0.000000 -0.487411 90.761500 1.085470 90.170900 -1.976750 11.558400 15.735700 0.000005 -0.000001 86.882900 82.064300 -87.599200 8.984550 -0.406207 -0.000000 8.077600 -0.861224 -1.370450 16.377300 -0.000001 -0.000001 4.041860 -4.421130 1.133800 6.456720 -0.000001 -0.000000 -12.640400 -3.494900 -3.318240 12.994200 -0.242716 4.980390 -91.540800 5.662320 -74.750400 5.348090 -0.000007 -0.000001 -60.755100 41.750700 -16.950800 24.328600 0.000019 0.000005 8.675700 21.737800 -22.391500 22.291600 -0.000001 0.000005 10.405000 5.274090 0.787345 12.994500 -0.242716 -4.980390 88.813600 9.033000 -82.486000 -5.348130 -0.000001 -0.000004 -63.110500 36.738400 -11.657300 -24.328900 0.000322 -0.000009 1.098720 3.166640 -19.163500 -22.291500 -0.000108 -0.000004 14.597400 5.440120 -4.289790 -2.192480 -6.469440 -0.000000 -175.589000 -9.568810 2.505590 39.081100 -0.000007 -0.000012 -0.131887 0.228854 29.954700 40.985400 -0.000006 -0.000013 0.253427 5.250780 -70.866700 11.754300 -0.000000 0.000003 -0.000071 -0.000769 -16.607200 -2.192510 6.469440 -0.000001 173.362000 15.603600 -176.238000 -39.081100 -0.002282 -0.040193 -0.171249 0.306557 29.657100 -40.985400 0.000008 0.000006 2.135490 11.322200 -71.544400 -11.754300 -0.000006 -0.000006 -0.005359 -0.064898 -19.213900
0.000000 0.000000 0.000000 0.000000 0.000000 -0.000000 -0.419365 90.756900 1.089150 90.143300 -1.981140 11.600700 15.735700 0.000005 -0.000001 86.948400 82.080500 -87.707900 8.984550 -0.406207 -0.000000 8.046020 -0.841401 -1.458410 16.377300 -0.000001 -0.000001 4.237620 -4.446320 1.062180 6.456720 -0.000001 -0.000000 -12.121600 -3.502440 -3.771770 12.994200 -0.242716 4.980390 -91.532100 5.617690 -74.718100 5.348090 -0.000007 -0.000001 -60.944100 41.448500 -16.664500 24.328600 0.000019 0.000005 8.607950 21.814900 -22.163700 22.291600 -0.000001 0.000005 10.428600 5.275850 0.739660 12.994500 -0.242716 -4.980390 88.810200 8.900400 -82.354200 -5.348130 -0.000001 -0.000004 -63.468700 35.496800 -11.336500 -24.328900 0.000322 -0.000009 1.108290 3.118110 -19.595800 -22.291500 -0.000108 -0.000004 14.578600 5.442090 -4.359120 -2.192480 -6.469440 -0.000000 -175.600000 -9.553810 2.519960 39.081100 -0.000007 -0.000012 -0.134164 0.232325 30.005900 40.985400 -0.000006 -0.000013 0.293774 5.224890 -70.896800 11.754300 -0.000000 0.000003 -0.000082 -0.000864 -16.610800 -2.192510 6.469440 -0.000001 173.319000 15.598400 -176.200000 -39.081100 -0.002282 -0.040193 -0.171536 0.307034 29.659300 -40.985400 0.000008 0.000006 2.097170 11.385700 -71.528400 -11.754300 -0.000006 -0.000006 -0.005408 -0.065361 -19.232800
0.000000 0.000000 0.000000 0.000000 0.000000 -0.000000 -0.345804 90.756300 1.083640 90.137300 -1.953850 11.666200 15.735700 0.000005 -0.000001 86.955300 82.072800 -87.754200 8.984550 -0.406207 -0.000000 8.061310 -0.840499 -1.536880 16.377300 -0.000001 -0.000001 4.368840 -4.472300 0.969830 6.456720 -0.000001 -0.000000 -11.560700 -3.513420 -4.275570 12.994200 -0.242716 4.980390 -91.528800 5.596690 -74.695300 5.348090 -0.000007 -0.000001 -61.050800 41.163200 -16.461600 24.328600 0.000019 0.000005 8.564060 21.923200 -21.966300 22.291600 -0.000001 0.000005 10.344800 5.275630 0.745734 12.994500 -0.242716 -4.980390 88.789500 8.810010 -82.144700 -5.348130 -0.000001 -0.000004 -63.644000 33.635500 -11.108500 -24.328900 0.000322 -0.000009 1.069250 2.913730 -20.180400 -22.291500 -0.000108 -0.000004 14.514900 5.444080 -4.429340 -2.192480 -6.469440 -0.000000 -175.638000 -9.571720 2.575360 39.081100 -0.000007 -0.000012 -0.131982 0.228383 30.023700 40.985400 -0.000006 -0.000013 0.350714 5.212570 -70.912100 11.754300 -0.000000 0.000003 -0.000083 -0.000878 -16.611400 -2.192510 6.469440 -0.000001 173.232000 15.653100 -176.121000 -39.081100 -0.002282 -0.040193 -0.172998 0.309742 29.648200 -40.985400 0.000008 0.000006 2.051300 11.434000 -71.507300 -11.754300 -0.000006 -0.000006 -0.005289 -0.064233 -19.186800
0.000000 0.000000 0.000000 0.000000 0.000000 -0.000000 -0.263734 90.756200 1.056650 90.119400 -1.947470 11.635300 15.735700 0.000005 -0.000001 86.891400 82.083400 -87.712700 8.984550 -0.406207 -0.000000 8.038850 -0.856842 -1.580770 16.377300 -0.000001 -0.000001 4.471090 -4.491450 0.953910 6.456720 -0.000001 -0.000000 -11.031600 -3.430820 -4.917700 12.994200 -0.242716 4.980390 -91.567500 5.718320 -74.642800 5.348090 -0.000007 -0.000001 -61.006600 40.909400 -16.248400 24.328600 0.000019 0.000005 8.553720 21.981800 -21.891600 22.291600 -0.000001 0.000005 10.442600 5.274400 0.778771 12.994500 -0.242716 -4.980390 88.745200 8.823350 -81.872800 -5.348130 -0.000001 -0.000004 -63.393900 31.394700 -11.028500 -24.328900 0.000322 -0.000009 0.977738 2.540260 -21.082000 -22.291500 -0.000108 -0.000004 14.769700 5.442900 -4.387490 -2.192480 -6.469440 -0.000000 -175.705000 -9.529140 2.493750 39.081100 -0.000007 -0.000012 -0.127894 0.220922 30.067100 40.985400 -0.000006 -0.000013 0.407947 5.178940 -70.918900 11.754300 -0.000000 0.000003 -0.000077 -0.000821 -16.609200 -2.192510 6.469440 -0.000001 173.199000 15.673200 -176.172000 -39.081100 -0.002282 -0.040193 -0.173138 0.310002 29.647000 -40.985400 0.000008 0.000006 1.997410 11.460600 -71.469300 -11.754300 -0.000006 -0.000006 -0.005495 -0.066180 -19.266200
0.000000 0.000000 0.000000 0.000000 0.000000 -0.000000 -0.162637 90.765600 1.028670 90.131900 -2.032560 11.596500 15.735700 0.000005 -0.000001 86.915700 82.090800 -87.774900 8.984550 -0.406207 -0.000000 8.024380 -0.849380 -1.657120 16.377300 -0.000001 -0.000001 4.609800 -4.466200 0.850180 6.456720 -0.000001 -0.000000 -10.581800 -3.378060 -5.303790 12.994200 -0.242716 4.980390 -91.646100 5.932160 -74.461200 5.348090 -0.000007 -0.000001 -60.682200 40.831300 -16.210400 24.328600 0.000019 0.000005 8.530180 21.973400 -21.843400 22.291600 -0.000001 0.000005 10.408800 5.276390 0.725026 12.994500 -0.242716 -4.980390 88.673100 8.926390 -81.509900 -5.348130 -0.000001 -0.000004 -62.675300 29.092000 -11.215800 -24.328900 0.000322 -0.000009 0.910046 2.230440 -22.226400 -22.291500 -0.000108 -0.000004 15.003300 5.442680 -4.379680 -2.192480 -6.469440 -0.000000 -175.778000 -9.619410 2.458190 39.081100 -0.000007 -0.000012 -0.128450 0.222173 30.034700 40.985400 -0.000006 -0.000013 0.472847 5.156050 -70.896400 11.754300 -0.000000 0.000003 -0.000085 -0.000895 -16.612000 -2.192510 6.469440 -0.000001 173.146000 15.617900 -176.234000 -39.081100 -0.002282 -0.040193 -0.171599 0.307688 29.615800 -40.985400 0.000008 0.000006 1.928650 11.491400 -71.406300 -11.754300 -0.000006 -0.000006 -0.005516 -0.066376 -19.274100
0.000000 0.000000 0.000000 0.000000 0.000000 -0.000000 -0.051001 90.767200 0.982044 90.121800 -2.124250 11.588300 15.735700 0.000005 -0.000001 86.862100 82.068000 -87.769900 8.984550 -0.406207 -0.000000 8.068650 -0.867009 -1.752720 16.377300 -0.000001 -0.000001 4.681050 -4.424380 0.685105 6.456720 -0.000001 -0.000000 -10.057100 -3.328620 -5.501760 12.994200 -0.242716 4.980390 -91.752000 6.208860 -74.208300 5.348090 -0.000007 -0.000001 -60.183900 40.675800 -16.249600 24.328600 0.000019 0.000005 8.614980 22.082900 -21.948800 22.291600 -0.000001 0.000005 10.383300 5.275060 0.760844 12.994500 -0.242716 -4.980390 88.577100 9.149600 -81.121400 -5.348130 -0.000001 -0.000004 -61.554200 26.620700 -11.616100 -24.328900 0.000322 -0.000009 0.872507 1.979710 -23.814900 -22.291500 -0.000108 -0.000004 15.399600 5.441350 -4.333010 -2.192480 -6.469440 -0.000000 -175.847000 -9.704570 2.411280 39.081100 -0.000007 -0.000012 -0.125004 0.215923 30.068000 40.985400 -0.000006 -0.000013 0.546272 5.094630 -70.898900 11.754300 -0.000000 0.000003 -0.000078 -0.000827 -16.609400 -2.192510 6.469440 -0.000001 173.100000 15.558600 -176.308000 -39.081100 -0.002282 -0.040193 -0.172133 0.308475 29.627900 -40.985400 0.000008 0.000006 1.876570 11.581500 -71.345900 -11.754300 -0.000006 -0.000006 -0.005269 -0.064040 -19.178900
0.000000 0.000000 0.000000 0.000000 0.000000 -0.000000 0.055383 90.765000 0.968772 90.105400 -2.252430 11.634000 15.735700 0.000005 -0.000001 86.886800 82.017900 -87.829400 8.984550 -0.406207 -0.000000 8.168880 -0.866471 -1.821580 16.377300 -0.000001 -0.000001 4.719450 -4.299760 0.459290 6.456720 -0.000001 -0.000000 -9.465460 -3.324620 -5.717020 12.994200 -0.242716 4.980390 -91.876700 6.557150 -73.990000 5.348090 -0.000007 -0.000001 -59.744000 40.282800 -16.249600 24.328600 0.000019 0.000005 8.744480 22.305300 -22.061000 22.291600 -0.000001 0.000005 10.280700 5.273600 0.800613 12.994500 -0.242716 -4.980390 88.477400 9.373680 -80.731400 -5.348130 -0.000001 -0.000004 -60.343400 23.506600 -12.059300 -24.328900 0.000322 -0.000009 0.860521 1.776260 -25.884100 -22.291500 -0.000108 -0.000004 15.692900 5.443310 -4.401220 -2.192480 -6.469440 -0.000000 -175.880000 -9.810540 2.448370 39.081100 -0.000007 -0.000012 -0.123563 0.213156 30.100500 40.985400 -0.000006 -0.000013 0.617420 5.054770 -70.927000 11.754300 -0.000000 0.000003 -0.000083 -0.000879 -16.611400 -2.192510 6.469440 -0.000001 173.055000 15.438400 -176.304000 -39.081100 -0.002282 -0.040193 -0.172155 0.308451 29.632900 -40.985400 0.000008 0.000006 1.803780 11.619700 -71.301500 -11.754300 -0.000006 -0.000006 -0.005403 -0.065317 -19.231000
